<svg xmlns="http://www.w3.org/2000/svg" width="1120" height="112" viewBox="0 0 1120 112" preserveAspectRatio="none">
  <defs>
    <clipPath id="nav-clip">
      <rect width="1120" height="112" rx="14"/>
    </clipPath>

    <filter id="stucco-grain" x="-4%" y="-10%" width="108%" height="120%">
      <feTurbulence type="fractalNoise" baseFrequency=".72" numOctaves="3" seed="61" result="grain"/>
      <feColorMatrix in="grain" type="matrix" values="0 0 0 0 .56 0 0 0 0 .48 0 0 0 0 .38 0 0 0 .14 0"/>
    </filter>

    <filter id="line-jitter" x="-4%" y="-20%" width="108%" height="140%">
      <feTurbulence type="fractalNoise" baseFrequency=".065 .42" numOctaves="2" seed="37" result="jitter"/>
      <feDisplacementMap in="SourceGraphic" in2="jitter" scale="2.4" xChannelSelector="R" yChannelSelector="G"/>
    </filter>
  </defs>

  <g clip-path="url(#nav-clip)">
    <rect width="1120" height="112" rx="14" fill="#faf3e8"/>

    <g opacity=".9">
      <path d="M-24 18 96 8 180 38 292 22 390 46 498 18 590 34 708 16 806 46 922 22 1036 36 1148 12 1148 0-24 0Z" fill="#fffaf2" opacity=".48"/>
      <path d="M-28 86 68 58 158 72 256 42 352 68 462 38 568 76 676 46 778 74 886 48 1008 74 1148 42 1148 112-28 112Z" fill="#e4d4bd" opacity=".34"/>
      <path d="M74 0 154 32 218 25 306 64 404 38 494 78 572 54 664 92 748 58 842 86 938 52 1042 78 1120 54 1120 112 0 112 0 80 62 64 126 88 214 72 306 104 420 86 516 108 636 84 740 106 858 80 974 96 1086 74 1120 82 1120 0Z" fill="#f1e5d3" opacity=".4"/>
      <path d="M-8 44 76 26 138 44 218 18 308 42 386 24 476 52 568 24 650 48 736 30 836 58 930 34 1018 56 1128 30 1128 76 1030 92 946 74 852 98 764 72 668 96 580 70 498 92 404 66 322 86 232 58 148 78 66 56-8 72Z" fill="#ffffff" opacity=".34"/>
      <path d="M-16 104 80 74 166 92 254 68 352 92 450 60 546 96 640 64 744 96 842 66 944 90 1048 62 1138 82 1138 112-16 112Z" fill="#cdbb9f" opacity=".22"/>
    </g>

    <g opacity=".38" fill="none" stroke-linecap="round" stroke-linejoin="round" filter="url(#line-jitter)">
      <g stroke="#fffdf8" stroke-width="3.4" opacity=".3" transform="translate(-1 -1)">
        <path d="M-34 80 58 56 138 62 222 32 308 46 396 18"/>
        <path d="M310 112 424 74 508 84 574 42 650 50 726 18"/>
        <path d="M700 106 800 66 884 78 952 42 1040 50 1152 20"/>
      </g>
      <g stroke="#c7aa83" stroke-width="2.4" opacity=".13">
        <path d="M-34 80 58 56 138 62 222 32 308 46 396 18"/>
        <path d="M310 112 424 74 508 84 574 42 650 50 726 18"/>
        <path d="M700 106 800 66 884 78 952 42 1040 50 1152 20"/>
      </g>
    </g>

    <g opacity=".42" fill="none" stroke-linecap="round" stroke-linejoin="round" filter="url(#line-jitter)">
      <g stroke="#fffdf7" stroke-width="1.1" opacity=".38" transform="translate(-.7 -.6)">
        <path d="M18 96 72 58 128 68 184 36 250 48 318 16"/>
        <path d="M360 108 430 74 492 82 560 40 624 48 700 14"/>
        <path d="M690 102 770 68 852 78 920 42 1014 50 1102 20"/>
      </g>

      <g stroke="#a58c70" stroke-width=".72" opacity=".32">
        <path d="M18 96 72 58 128 68 184 36 250 48 318 16"/>
        <path d="M360 108 430 74 492 82 560 40 624 48 700 14"/>
        <path d="M690 102 770 68 852 78 920 42 1014 50 1102 20"/>
      </g>

      <g stroke="#9b8367" stroke-width=".52" opacity=".24">
        <path d="M128 68 148 96 198 104"/>
        <path d="M250 48 292 78 354 88"/>
        <path d="M492 82 458 108"/>
        <path d="M560 40 596 16"/>
        <path d="M624 48 666 82 734 98"/>
        <path d="M852 78 820 106"/>
        <path d="M1014 50 1056 82 1122 94"/>
      </g>
    </g>

    <g opacity=".46">
      <circle cx="86" cy="27" r="1.9" fill="#b7764e" opacity=".28"/>
      <circle cx="118" cy="42" r=".9" fill="#745947" opacity=".24"/>
      <circle cx="286" cy="18" r="1.2" fill="#b7764e" opacity=".22"/>
      <circle cx="472" cy="38" r="1" fill="#b7764e" opacity=".2"/>
      <circle cx="654" cy="30" r="1.4" fill="#b7764e" opacity=".22"/>
      <circle cx="828" cy="76" r="1.2" fill="#8f715a" opacity=".24"/>
      <circle cx="1008" cy="70" r="1.5" fill="#b7764e" opacity=".22"/>
      <circle cx="1060" cy="42" r=".9" fill="#745947" opacity=".22"/>
    </g>

    <g opacity=".16">
      <path d="M160 0v112M320 0v112M480 0v112M640 0v112M800 0v112M960 0v112" stroke="#8f715a" stroke-width="1"/>
      <path d="M160 0v112M320 0v112M480 0v112M640 0v112M800 0v112M960 0v112" stroke="#ffffff" stroke-width=".7" transform="translate(1 0)"/>
    </g>

    <rect width="1120" height="112" filter="url(#stucco-grain)" opacity=".28"/>
  </g>
</svg>
